<svg width="971" height="230" viewBox="0 0 971 230" fill="none" xmlns="http://www.w3.org/2000/svg">
<path d="M294 187.112V37.0022H355.662C365.083 37.0022 373.361 38.9322 380.498 42.7921C387.778 46.5091 393.416 51.7987 397.412 58.6608C401.552 65.523 403.621 73.6718 403.621 83.1072V86.1094C403.621 95.4019 401.48 103.551 397.198 110.556C393.059 117.418 387.349 122.779 380.07 126.639C372.933 130.356 364.797 132.214 355.662 132.214H322.262V187.112H294ZM322.262 106.481H352.879C359.587 106.481 365.011 104.623 369.15 100.906C373.29 97.1889 375.359 92.1138 375.359 85.6805V83.5361C375.359 77.1029 373.29 72.0277 369.15 68.3107C365.011 64.5937 359.587 62.7352 352.879 62.7352H322.262V106.481Z" fill="white"/>
<path d="M461.376 190.114C453.811 190.114 447.031 188.827 441.036 186.254C435.041 183.538 430.259 179.678 426.691 174.674C423.265 169.527 421.552 163.309 421.552 156.018C421.552 148.726 423.265 142.651 426.691 137.79C430.259 132.786 435.112 129.069 441.25 126.639C447.53 124.066 454.667 122.779 462.66 122.779H491.779V116.775C491.779 111.771 490.208 107.697 487.068 104.551C483.928 101.263 478.932 99.6193 472.081 99.6193C465.372 99.6193 460.377 101.192 457.094 104.337C453.811 107.339 451.67 111.271 450.671 116.131L425.835 107.768C427.547 102.336 430.259 97.4034 433.97 92.9716C437.824 88.3968 442.891 84.7513 449.172 82.035C455.595 79.1758 463.374 77.7462 472.509 77.7462C486.497 77.7462 497.559 81.2487 505.695 88.2538C513.831 95.2589 517.899 105.409 517.899 118.705V158.376C517.899 162.665 519.897 164.81 523.894 164.81H532.458V187.112H514.474C509.192 187.112 504.839 185.825 501.413 183.252C497.988 180.678 496.275 177.247 496.275 172.958V172.744H492.207C491.636 174.46 490.351 176.747 488.353 179.606C486.355 182.322 483.214 184.753 478.932 186.897C474.65 189.042 468.798 190.114 461.376 190.114ZM466.086 168.241C473.651 168.241 479.789 166.168 484.499 162.022C489.352 157.733 491.779 152.086 491.779 145.081V142.937H464.587C459.592 142.937 455.666 144.009 452.812 146.153C449.957 148.298 448.53 151.3 448.53 155.16C448.53 159.02 450.028 162.165 453.026 164.595C456.023 167.026 460.377 168.241 466.086 168.241Z" fill="white"/>
<path d="M567.24 230V206.411H625.048C629.045 206.411 631.043 204.267 631.043 199.978V173.173H627.189C626.047 175.603 624.263 178.034 621.837 180.464C619.41 182.894 616.127 184.896 611.988 186.468C607.849 188.041 602.567 188.827 596.144 188.827C587.865 188.827 580.586 186.969 574.306 183.252C568.168 179.392 563.386 174.102 559.961 167.383C556.535 160.664 554.822 152.944 554.822 144.223V80.7484H581.799V142.079C581.799 150.085 583.726 156.089 587.58 160.092C591.577 164.095 597.215 166.096 604.494 166.096C612.773 166.096 619.196 163.38 623.764 157.947C628.331 152.372 630.615 144.652 630.615 134.788V80.7484H657.592V205.982C657.592 213.274 655.451 219.063 651.169 223.352C646.887 227.784 641.177 230 634.041 230H567.24Z" fill="white"/>
<path d="M693.178 187.112V37.0022H721.44V96.6171H725.294L773.896 37.0022H810.079L747.561 110.985L812.22 187.112H774.966L725.294 126.21H721.44V187.112H693.178Z" fill="white"/>
<path d="M834.482 187.112V80.7484H861.459V187.112H834.482ZM847.971 68.3107C843.117 68.3107 838.978 66.7382 835.552 63.593C832.27 60.4479 830.628 56.302 830.628 51.1554C830.628 46.0088 832.27 41.8629 835.552 38.7177C838.978 35.5726 843.117 34 847.971 34C852.966 34 857.106 35.5726 860.389 38.7177C863.671 41.8629 865.313 46.0088 865.313 51.1554C865.313 56.302 863.671 60.4479 860.389 63.593C857.106 66.7382 852.966 68.3107 847.971 68.3107Z" fill="white"/>
<path d="M938.456 187.112C931.462 187.112 925.753 184.967 921.328 180.678C917.046 176.247 914.905 170.385 914.905 163.094V103.05H888.356V80.7484H914.905V47.7243H941.882V80.7484H971V103.05H941.882V158.376C941.882 162.665 943.88 164.81 947.877 164.81H968.431V187.112H938.456Z" fill="white"/>
<path d="M103.354 0C116.887 0.289773 125.702 6.98047 136.857 13.5642L158.23 25.896L179.389 37.9995C188.845 43.4105 197.695 47.4977 203.332 57.2833C208.613 66.4547 207.911 75.488 207.903 85.5242L207.896 106.869L207.929 136.616C207.952 144.004 208.416 156.341 206.633 163.132C204.981 169.445 201.49 175.13 196.607 179.472C192.701 182.987 186.67 186.255 182.081 188.892L110.643 230C110.435 222.822 110.585 215.079 110.513 207.87C110.463 202.912 110.35 192.671 111.333 188.125C113.677 185.644 121.882 181.381 125.21 179.51L151.164 164.677C156.966 161.367 166.444 156.892 170.485 151.898C171.839 150.224 171.388 134.792 171.386 131.765L171.366 102.519C171.363 95.2988 171.811 85.9002 171.073 78.755C170.785 75.9702 168.267 73.7834 165.941 72.3415C162.98 70.423 158.499 68.0312 155.323 66.2126L118.384 44.9478C114.842 42.9083 111.328 40.8166 107.688 38.9536C105.298 37.7301 102.907 37.6879 100.501 38.9162C96.234 41.0949 92.1057 43.5426 87.9551 45.9333L66.2537 58.4535L50.9952 67.1689C34.4749 76.5594 36.4115 74.3485 36.5954 93.1682C36.6522 100.339 36.6711 107.51 36.6525 114.681L36.6418 195.047C28.146 190.676 19.3747 185.7 11.9369 179.715C-1.73664 168.713 0.0580989 154.136 0.0978335 138.578L0.136082 109.269L0.0878041 86.0094C0.07295 80.5921 -0.162118 72.5377 0.860584 67.4061C2.06191 61.5951 4.75087 56.1923 8.6664 51.7225C14.2641 45.3456 24.2929 40.452 31.7585 36.2009L55.222 22.71L75.3804 11.0639C85.1035 5.42908 91.7336 0.766807 103.354 0Z" fill="white"/>
<path d="M50.029 90.9825C58.3469 95.1896 68.1179 101.465 76.4035 106.023C80.8827 108.488 92.8209 115.215 96.4632 118.151C97.6804 122.856 97.2563 130.557 97.2478 135.642L97.2586 229.758C96.0866 229.306 94.7917 228.587 93.6858 227.963L70.4782 214.546C68.1513 213.212 51.3068 204.105 50.7093 202.01C49.6376 198.253 49.9559 188.729 49.9848 184.381L50.0093 166.34L50.029 90.9825Z" fill="white"/>
<path d="M157.514 91.172L157.884 91.6272C158.392 96.4901 158.156 107.9 158.18 113.201C158.204 119.582 158.175 125.963 158.093 132.342C158.051 136.031 158.127 141.161 157.582 144.713C153.937 148.314 142.602 154.214 137.535 157.097L111.145 172.218L110.945 172.047C110.183 170.42 110.755 155.247 110.749 152.268L110.684 131.955C110.679 128.85 110.628 125.688 110.738 122.628C110.841 119.742 111.02 118.572 113.415 116.84C118.474 113.181 124.325 110.177 129.713 107.105L157.514 91.172Z" fill="white"/>
<path d="M103.303 52.8771C106.481 52.8953 118.754 60.5519 122.273 62.587L151.341 79.3827C140.506 85.1389 129.978 91.8774 119.261 97.8771C114.659 100.453 109.537 103.693 104.784 105.839C100.186 105.098 85.2918 95.7802 80.5801 93.0639L56.6996 79.4042C62.9921 75.3333 72.6131 70.2776 79.3632 66.2829C85.6743 62.5481 97.0443 55.6324 103.303 52.8771Z" fill="white"/>
</svg>
