<svg
  width="938"
  height="250"
  viewBox="0 0 938 250"
  fill="none"
  xmlns="http://www.w3.org/2000/svg"
>
<path
    d="M300.25 212.5V55.64H323.25L323.94 81.86L321.18 80.48C324.247 71.4333 329.307 64.61 336.36 60.01C343.413 55.2567 351.54 52.88 360.74 52.88C372.7 52.88 382.513 55.87 390.18 61.85C398 67.6767 403.75 75.42 407.43 85.08C411.263 94.74 413.18 105.32 413.18 116.82C413.18 128.32 411.263 138.9 407.43 148.56C403.75 158.22 398 166.04 390.18 172.02C382.513 177.847 372.7 180.76 360.74 180.76C354.607 180.76 348.857 179.687 343.49 177.54C338.123 175.393 333.523 172.403 329.69 168.57C326.01 164.583 323.403 159.907 321.87 154.54L324.63 151.78V212.5H300.25ZM356.37 159.6C366.183 159.6 373.85 155.843 379.37 148.33C385.043 140.817 387.88 130.313 387.88 116.82C387.88 103.327 385.043 92.8233 379.37 85.31C373.85 77.7967 366.183 74.04 356.37 74.04C349.93 74.04 344.333 75.65 339.58 78.87C334.827 81.9367 331.147 86.69 328.54 93.13C325.933 99.57 324.63 107.467 324.63 116.82C324.63 126.173 325.857 134.07 328.31 140.51C330.917 146.95 334.597 151.78 339.35 155C344.257 158.067 349.93 159.6 356.37 159.6Z"
    fill="white"
  />
<path
    d="M474.676 180.76C461.95 180.76 451.753 177.847 444.086 172.02C436.573 166.193 432.816 157.99 432.816 147.41C432.816 136.83 435.96 128.627 442.246 122.8C448.686 116.82 458.576 112.527 471.916 109.92L514.006 101.87C514.006 92.3633 511.783 85.31 507.336 80.71C502.89 75.9567 496.296 73.58 487.556 73.58C479.736 73.58 473.603 75.3433 469.156 78.87C464.71 82.2433 461.643 87.3033 459.956 94.05L434.886 92.44C437.186 80.1733 442.86 70.5133 451.906 63.46C461.106 56.4067 472.99 52.88 487.556 52.88C504.116 52.88 516.69 57.3267 525.276 66.22C534.016 74.96 538.386 87.3033 538.386 103.25V150.86C538.386 153.773 538.846 155.843 539.766 157.07C540.84 158.143 542.526 158.68 544.826 158.68H549.196V178C548.43 178.153 547.203 178.307 545.516 178.46C543.83 178.613 542.066 178.69 540.226 178.69C535.013 178.69 530.49 177.847 526.656 176.16C522.976 174.473 520.216 171.713 518.376 167.88C516.536 163.893 515.616 158.603 515.616 152.01L518.146 153.16C516.92 158.527 514.236 163.28 510.096 167.42C506.11 171.56 500.973 174.857 494.686 177.31C488.553 179.61 481.883 180.76 474.676 180.76ZM478.586 161.44C485.946 161.44 492.233 160.06 497.446 157.3C502.66 154.387 506.723 150.4 509.636 145.34C512.55 140.28 514.006 134.53 514.006 128.09V120.27L478.126 127.17C470.766 128.55 465.553 130.773 462.486 133.84C459.573 136.753 458.116 140.51 458.116 145.11C458.116 150.323 459.88 154.387 463.406 157.3C467.086 160.06 472.146 161.44 478.586 161.44Z"
    fill="white"
  />
<path
    d="M571.066 212.5V192.49H586.016C590.156 192.49 593.223 191.877 595.216 190.65C597.209 189.423 598.743 187.353 599.816 184.44L603.726 174.32H596.136L551.976 55.64H577.736L611.316 151.78L643.286 55.64H669.276L620.516 192.26C618.063 199.313 614.383 204.45 609.476 207.67C604.723 210.89 598.053 212.5 589.466 212.5H571.066Z"
    fill="white"
  />
<path
    d="M689.049 178V14.7H713.429V116.13L768.399 55.64H799.219L751.379 107.16L801.059 178H772.999L735.049 122.34L713.429 145.34V178H689.049Z"
    fill="white"
  />
<path
    d="M817.75 178V55.64H842.13V178H817.75ZM817.29 37.93V13.55H842.59V37.93H817.29Z"
    fill="white"
  />
<path
    d="M915.207 178C903.554 178 894.967 175.317 889.447 169.95C883.927 164.583 881.167 156.227 881.167 144.88V26.89H905.547V143.04C905.547 148.713 906.774 152.623 909.227 154.77C911.68 156.917 915.437 157.99 920.497 157.99H937.977V178H915.207ZM862.537 75.65V55.64H937.977V75.65H862.537Z"
    fill="white"
  />
<path
    d="M110.807 0C125.317 0.314971 134.767 7.58746 146.726 14.7437L169.64 28.1479L192.326 41.3038C202.463 47.1853 211.952 51.6279 217.996 62.2645C223.657 72.2333 222.904 82.0521 222.897 92.9611L222.889 116.162L222.924 148.495C222.948 156.526 223.446 169.936 221.535 177.318C219.763 184.179 216.021 190.358 210.785 195.078C206.598 198.899 200.131 202.451 195.212 205.318L118.622 250C118.399 242.198 118.559 233.782 118.483 225.946C118.43 220.556 118.308 209.425 119.362 204.484C121.875 201.787 130.672 197.153 134.24 195.119L162.065 178.997C168.286 175.399 178.447 170.534 182.78 165.106C184.232 163.287 183.748 146.513 183.746 143.223L183.724 111.433C183.721 103.586 184.201 93.3698 183.41 85.6033C183.101 82.5763 180.401 80.1993 177.908 78.6321C174.734 76.5468 169.929 73.947 166.524 71.9703L126.922 48.8563C123.124 46.6394 119.356 44.3659 115.454 42.3409C112.891 41.011 110.328 40.9651 107.749 42.3002C103.174 44.6684 98.748 47.3289 94.298 49.9275L71.0316 63.5364L54.6728 73.0097C36.9611 83.2167 39.0374 80.8136 39.2344 101.27C39.2954 109.064 39.3157 116.859 39.2958 124.653L39.2842 212.008C30.1758 207.256 20.7719 201.848 12.7977 195.342C-1.86187 183.383 0.0622888 167.539 0.104889 150.629L0.145895 118.771L0.0941361 93.4884C0.0782108 87.6001 -0.173809 78.8453 0.922645 73.2675C2.2106 66.9512 5.09348 61.0786 9.29138 56.2201C15.2928 49.2887 26.0448 43.9696 34.0488 39.3488L59.2043 24.6848L80.8165 12.026C91.2408 5.90118 98.349 0.833486 110.807 0Z"
    fill="white"
  />
<path
    d="M53.6369 98.894C62.5546 103.467 73.0302 110.288 81.9134 115.243C86.7156 117.921 99.5148 125.234 103.42 128.425C104.725 133.539 104.27 141.91 104.261 147.437L104.272 249.737C103.016 249.246 101.628 248.465 100.442 247.786L75.5608 233.202C73.0661 231.752 55.0068 221.854 54.3662 219.577C53.2172 215.492 53.5584 205.14 53.5895 200.414L53.6158 180.805L53.6369 98.894Z"
    fill="white"
  />
<path
    d="M168.873 99.1L169.27 99.5948C169.814 104.88 169.562 117.283 169.587 123.045C169.613 129.98 169.581 136.916 169.494 143.85C169.449 147.86 169.531 153.436 168.946 157.297C165.038 161.21 152.885 167.624 147.454 170.758L119.16 187.194L118.946 187.008C118.129 185.24 118.743 168.747 118.736 165.509L118.666 143.43C118.661 140.054 118.606 136.618 118.724 133.292C118.834 130.154 119.026 128.883 121.594 127C127.018 123.023 133.291 119.758 139.068 116.419L168.873 99.1Z"
    fill="white"
  />
<path
    d="M110.753 57.4752C114.16 57.4949 127.317 65.8173 131.091 68.0293L162.255 86.2855C150.638 92.5423 139.351 99.8667 127.861 106.388C122.928 109.188 117.436 112.71 112.341 115.042C107.411 114.237 91.4426 104.109 86.3911 101.156L60.7885 86.3089C67.5348 81.884 77.8496 76.3887 85.0865 72.0467C91.8527 67.9871 104.043 60.47 110.753 57.4752Z"
    fill="white"
  />
</svg>
