<?xml version="1.0" encoding="UTF-8"?>
<svg id="katman_1" data-name="katman 1" xmlns="http://www.w3.org/2000/svg" version="1.1" viewBox="0 0 841.89 595.28">
  <defs>
    <style>
      .cls-1 {
        fill: #ffc233;
      }

      .cls-1, .cls-2 {
        fill-rule: evenodd;
        stroke-width: 0px;
      }

      .cls-2 {
        fill: #1d1d1b;
      }
    </style>
  </defs>
  <path class="cls-2" d="M219.95,296.96h20.04c-1.33-5.09-4.99-7.15-9.44-7.15-4.9,0-8.82,2.67-10.59,7.15ZM251.75,305.67h-32.5c1.33,6.56,6.85,8.97,11.66,8.97,6.06,0,8.64-3.62,8.64-3.62h11.22c-3.39,8.62-11.49,13.36-20.22,13.36-12.02,0-22.53-8.88-22.53-22.33s10.42-21.64,22.17-21.64,22.98,7.67,21.55,25.26Z"/>
  <path class="cls-2" d="M362.16,302.4c0-6.73-4.1-11.98-10.86-11.98s-11.31,5.26-11.31,11.98,4.54,11.98,11.31,11.98,10.86-5.26,10.86-11.98ZM328.32,302.48c0-13.79,11.04-22.07,22.98-22.07s22.53,8.36,22.53,21.9-10.87,22.07-22.89,22.07-22.62-8.36-22.62-21.9Z"/>
  <path class="cls-2" d="M421.5,300.59v23.36h-11.85v-20.78c0-1.47,1.07-12.33-7.48-12.76-4.19-.26-11.67,1.98-11.67,13.28v20.26h-11.75v-43.11h10.79l.04,5.98s4.87-6.41,13.94-6.41c11.49,0,17.98,8.28,17.98,20.18Z"/>
  <path class="cls-2" d="M464.82,289.55c-3.74,0-5.34,1.81-5.34,3.62,0,2.93,4.01,3.79,6.68,4.31,7.93,1.64,15.95,3.97,15.95,13.1s-7.57,13.8-16.75,13.8c-10.24,0-18.17-6.03-18.7-15.17h10.95c.27,2.58,2.05,5.95,7.49,5.95,4.54,0,5.61-2.32,5.61-4.13,0-3.19-3.12-4.14-6.15-4.83-5.25-1.12-16.56-3.19-16.56-13.02,0-8.45,8.38-12.76,17.01-12.76,9.97,0,16.56,5.86,17.1,13.11h-10.96c-.35-1.47-1.77-3.97-6.32-3.97Z"/>
  <path class="cls-2" d="M518.1,302.4c0-7.16-4.01-11.38-9.8-11.38-5.43,0-10.87,3.79-10.87,11.38s5.44,11.38,10.87,11.38c5.79,0,9.8-4.23,9.8-11.38ZM529.23,280.84v60.35h-11.13v-21.47c-2.85,3.1-6.86,4.65-11.49,4.65-11.3,0-20.75-8.96-20.75-21.98s9.44-21.99,20.75-21.99c8.89,0,12.22,5.77,12.22,5.77l-.02-5.35h10.43Z"/>
  <path class="cls-2" d="M592.87,296.96h20.04c-1.34-5.09-4.99-7.15-9.44-7.15-4.9,0-8.82,2.67-10.6,7.15ZM624.67,305.67h-32.51c1.34,6.56,6.86,8.97,11.67,8.97,6.06,0,8.65-3.62,8.65-3.62h11.22c-3.39,8.62-11.49,13.36-20.22,13.36-12.02,0-22.53-8.88-22.53-22.33s10.42-21.64,22.18-21.64,22.98,7.67,21.55,25.26Z"/>
  <path class="cls-2" d="M640.19,296.96h20.04c-1.33-5.09-4.99-7.15-9.44-7.15-4.9,0-8.82,2.67-10.59,7.15ZM671.98,305.67h-32.5c1.33,6.56,6.85,8.97,11.66,8.97,6.06,0,8.64-3.62,8.64-3.62h11.22c-3.39,8.62-11.49,13.36-20.22,13.36-12.02,0-22.53-8.88-22.53-22.33s10.42-21.64,22.17-21.64,22.98,7.67,21.55,25.26Z"/>
  <path class="cls-2" d="M711.64,314.3v9.65h-37.85v-5.69l21.47-27.76h-20.57v-9.66h36.07v5.69l-21.47,27.77h22.35Z"/>
  <path class="cls-2" d="M757.97,280.84v38.8c0,11.64-6.15,21.99-21.38,21.99-14.25,0-22-9.06-22-15.87h11.13s1.69,5.78,10.51,5.78c7.48,0,10.6-4.14,10.6-10.17v-1.81c-1.96,2.16-5.7,4.82-12.38,4.82-11.67,0-18.97-8.19-18.97-20.17l-.1-23.37h11.58v20.78c0,5.86,2.14,12.76,9.53,12.76,3.83,0,10.15-1.81,10.15-13.28v-20.26h11.31Z"/>
  <path class="cls-2" d="M199.54,311.01c0,2.69,1.06,3.8,3.02,3.8,1.38,0,2.28-.16,3.6-.55l.73,8.86c-2.45.79-4.82,1.26-7.85,1.26-6.94,0-11.19-2.21-11.19-11.79v-48.99h11.68v47.41Z"/>
  <path class="cls-2" d="M323.29,300.59v23.36h-11.85v-20.78c0-5.95.62-13.45-7.57-12.76-2.13.17-8.01,1.12-8.01,13.28v20.26h-11.75v-20.78c0-5.95.62-13.45-7.57-12.76-2.14.17-8.01,1.12-8.01,13.28v20.26h-11.76v-43.11h10.79v5.98s4.13-6.41,11.83-6.41c9.27,0,12.91,6.98,12.91,6.98,0,0,3.99-7.07,14.17-7.07,11.57,0,16.83,8.28,16.83,20.26Z"/>
  <path class="cls-2" d="M534.23,304.2v-23.36h11.85v20.78c0,1.47-1.07,12.33,7.48,12.76,4.19.26,11.67-1.98,11.67-13.28v-20.26h11.75v43.11h-10.78l-.05-5.98s-4.87,6.41-13.94,6.41c-11.49,0-17.98-8.28-17.98-20.18Z"/>
  <path class="cls-1" d="M106.62,307.55l23.88,11.04c2.96,1.37,5.05,3.67,6.18,6.3,2.85,6.67-1.05,13.5-7.17,15.95-6.12,2.45-12.65.87-15.61-6.06l-10.39-24.36c-.81-1.89,1.22-3.74,3.12-2.86Z"/>
  <path class="cls-1" d="M108.05,300.41l24.65-9.32c8.19-3.1,17.14,2.76,17.02,11.27,0,.11,0,.22,0,.33-.18,8.29-8.88,13.86-16.89,10.93l-24.75-9.06c-1.97-.72-1.99-3.42-.02-4.16Z"/>
  <path class="cls-1" d="M106.67,297.18l24.23-10.29c8.05-3.42,10.09-13.69,3.79-19.62-.08-.08-.17-.16-.25-.23-6.18-5.74-16.4-3.72-19.92,3.84l-10.87,23.35c-.87,1.86,1.09,3.78,3.03,2.96Z"/>
  <path class="cls-1" d="M100.44,293.11l8.81-24.15c1.09-2.99.89-6.05-.24-8.68-2.86-6.67-10.6-8.82-16.72-6.37-6.12,2.46-9.58,8.04-6.6,14.98l10.46,24.34c.81,1.89,3.6,1.81,4.3-.11Z"/>
</svg>