<svg width="446" height="137" viewBox="0 0 446 137" fill="none" xmlns="http://www.w3.org/2000/svg">
<path d="M213.9 32.1C224.8 32.1 234.5 37.6 240.6 46.2V0H253V102.9H240.6V91C234.5 99.7 224.9 105.1 213.9 105.1C193.5 105.1 176.2 89.1 176.2 68.6C176.2 48.2 193.5 32.1 213.9 32.1ZM213.9 94.1C230.1 94.1 240.6 83.3 240.6 68.6C240.6 53.9 230.1 43.1 213.9 43.1C199.5 43.1 188.6 53.4 188.6 68.6C188.6 83.8 199.5 94.1 213.9 94.1ZM155.5 46.2C149.4 37.6 139.8 32.1 128.8 32.1C108.4 32.1 91.1 48.1 91.1 68.6C91.1 89 108.4 105.1 128.8 105.1C139.6 105.1 149.2 99.6 155.5 91V102.9H167.9V34.3H155.5V46.2ZM155.5 68.6C155.5 83.1 144.9 94.1 128.8 94.1C114.4 94.1 103.5 83.8 103.5 68.6C103.5 53.4 114.4 43.1 128.8 43.1C145 43.1 155.5 53.9 155.5 68.6ZM0 66.8V70.5C2.3 70.5 4.5 70.9 6.6 71.8C8.7 72.7 10.6 73.9 12.2 75.5C13.8 77.1 15.1 79 15.9 81.1C16.8 83.2 17.2 85.4 17.2 87.7H20.7C20.7 83.2 22.5 78.8 25.8 75.6C29.1 72.4 33.4 70.6 38 70.6V66.9C35.7 66.9 33.5 66.5 31.4 65.6C29.3 64.7 27.4 63.5 25.8 61.9C24.2 60.3 22.9 58.4 22.1 56.3C21.3 54.2 20.8 52 20.8 49.7H17.3C17.3 54.2 15.5 58.6 12.2 61.8C8.9 65 4.5 66.8 0 66.8ZM46.9 43.2H17.2V32.2H46.9C67.8 32.2 84.2 48.5 84.2 68.5C84.2 88.5 67.8 104.8 46.9 104.8H29.6V137H17.2V93.8H46.9C61.4 93.8 71.8 83.5 71.8 68.4C71.8 53.3 61.4 43.2 46.9 43.2ZM327 46.2C320.9 37.6 311.3 32.1 300.3 32.1C279.9 32.1 262.6 48.1 262.6 68.6C262.6 89 279.9 105.1 300.3 105.1C311.2 105.1 320.9 99.6 327 91V102.9H339.4V0H327V46.2ZM327 68.6C327 83.3 316.5 94.1 300.3 94.1C285.9 94.1 275 83.8 275 68.6C275 53.4 285.9 43.1 300.3 43.1C316.5 43.1 327 53.9 327 68.6ZM351.9 102.9V0H364.3V102.9H351.9ZM445.7 73.4C445.7 50.8 434.2 32.3 410.3 32.3C389.4 32.3 373.3 48.9 373.3 68.6C373.3 88.3 389.5 104.9 410.3 104.9C426.9 104.9 439.2 94.5 443.9 83.9H430.5C425.5 91.4 418.9 95.3 410.3 95.3C397.9 95.3 387.9 86.7 386 73.4H445.7ZM410.3 41.9C423.6 41.9 433.2 52.6 433.2 63.8H386C387.9 50.5 397.9 41.9 410.3 41.9Z" fill="#FCFCFC"/>
</svg>
