<svg width="132" height="35" viewBox="0 0 132 35" fill="none" xmlns="http://www.w3.org/2000/svg">
<path d="M49.24 4.89H59.4C60.74 4.89 61.95 5.23 63.04 5.91C64.13 6.57 65 7.48 65.63 8.64C66.29 9.81 66.61 11.11 66.61 12.54C66.61 13.97 66.28 15.36 65.63 16.55C65 17.74 64.14 18.69 63.04 19.39C61.95 20.09 60.73 20.45 59.4 20.45H52.41V30.4H49.24V4.89ZM52.41 17.35H59.48C60.21 17.35 60.86 17.14 61.45 16.73C62.03 16.29 62.49 15.71 62.83 14.98C63.17 14.25 63.34 13.44 63.34 12.54C63.34 11.64 63.17 10.89 62.83 10.21C62.49 9.53 62.03 8.98 61.45 8.57C60.87 8.16 60.21 7.95 59.48 7.95H52.41V17.35Z" fill="black"/>
<path d="M78.36 30.76C76.49 30.76 74.81 30.33 73.33 29.48C71.87 28.61 70.72 27.43 69.87 25.95C69.02 24.44 68.59 22.73 68.59 20.81C68.59 18.89 69.02 17.19 69.87 15.71C70.72 14.23 71.87 13.06 73.33 12.21C74.81 11.36 76.49 10.93 78.36 10.93C80.23 10.93 81.89 11.35 83.35 12.21C84.83 13.06 85.99 14.23 86.81 15.71C87.66 17.19 88.08 18.89 88.08 20.81C88.08 22.73 87.65 24.44 86.81 25.95C85.98 27.43 84.83 28.61 83.35 29.48C81.89 30.33 80.23 30.76 78.36 30.76ZM78.36 27.92C79.65 27.92 80.79 27.62 81.78 27.01C82.78 26.38 83.55 25.53 84.11 24.46C84.69 23.39 84.97 22.18 84.95 20.82C84.97 19.46 84.69 18.26 84.11 17.21C83.55 16.14 82.77 15.3 81.78 14.7C80.78 14.09 79.64 13.79 78.36 13.79C77.08 13.79 75.92 14.09 74.9 14.7C73.9 15.31 73.13 16.15 72.57 17.21C72.01 18.28 71.73 19.48 71.73 20.82C71.73 22.16 72.01 23.39 72.57 24.46C73.13 25.53 73.91 26.38 74.9 27.01C75.92 27.62 77.07 27.92 78.36 27.92Z" fill="black"/>
<path d="M91.41 3.44H94.47V30.4H91.41V3.44Z" fill="black"/>
<path d="M106.54 30.76C104.91 30.76 103.43 30.33 102.1 29.48C100.79 28.61 99.74 27.42 98.97 25.91C98.19 24.4 97.8 22.7 97.8 20.81C97.8 18.92 98.2 17.19 99 15.71C99.8 14.23 100.87 13.06 102.21 12.21C103.57 11.36 105.09 10.93 106.76 10.93C107.76 10.93 108.67 11.08 109.49 11.37C110.34 11.66 111.09 12.07 111.75 12.61C112.41 13.12 112.95 13.73 113.39 14.43C113.83 15.11 114.12 15.84 114.26 16.62L113.46 16.26L113.5 11.34H116.56V30.39H113.5V25.76L114.27 25.36C114.1 26.06 113.77 26.74 113.29 27.4C112.83 28.06 112.25 28.64 111.54 29.15C110.86 29.64 110.09 30.02 109.24 30.32C108.39 30.61 107.49 30.76 106.54 30.76ZM107.27 27.88C108.51 27.88 109.6 27.58 110.55 26.97C111.5 26.36 112.25 25.54 112.81 24.49C113.37 23.42 113.65 22.19 113.65 20.81C113.65 19.43 113.37 18.25 112.81 17.2C112.28 16.16 111.52 15.33 110.55 14.72C109.6 14.11 108.51 13.81 107.27 13.81C106.03 13.81 104.94 14.11 103.99 14.72C103.04 15.33 102.29 16.15 101.73 17.2C101.2 18.24 100.93 19.45 100.93 20.81C100.93 22.17 101.2 23.38 101.73 24.45C102.29 25.52 103.04 26.36 103.99 26.96C104.94 27.57 106.03 27.87 107.27 27.87V27.88Z" fill="black"/>
<path d="M120.49 30.39V11.34H123.55L123.62 16.7L123.29 15.79C123.56 14.89 123.99 14.08 124.6 13.35C125.21 12.62 125.92 12.04 126.75 11.6C127.6 11.16 128.5 10.94 129.45 10.94C129.86 10.94 130.25 10.98 130.62 11.05C131.01 11.1 131.32 11.17 131.57 11.27L130.73 14.66C130.41 14.51 130.09 14.4 129.75 14.33C129.41 14.26 129.09 14.22 128.8 14.22C128.02 14.22 127.31 14.37 126.65 14.66C126.02 14.95 125.47 15.35 125.01 15.86C124.57 16.35 124.22 16.92 123.95 17.57C123.71 18.23 123.59 18.93 123.59 19.68V30.39H120.49Z" fill="black"/>
<path fill-rule="evenodd" clip-rule="evenodd" d="M7.68956 31.989C15.6957 37.411 26.576 35.3075 31.989 27.3104C37.411 19.3043 35.3075 8.42398 27.3104 3.01101C19.3043 -2.41102 8.42398 -0.30749 3.01101 7.68956C-2.41102 15.6957 -0.307491 26.576 7.68956 31.989ZM10.0107 32.1341C17.3277 35.8787 26.6214 32.3607 30.7559 24.2821C34.8904 16.2034 32.3063 6.61059 24.9893 2.86594C17.6723 -0.87871 8.37865 2.63927 4.24412 10.7179C0.109588 18.7966 2.69367 28.3894 10.0107 32.1341Z" fill="black"/>
<path fill-rule="evenodd" clip-rule="evenodd" d="M12.0961 34.0472C18.7059 36.1961 26.4763 30.5201 29.4593 21.3535C32.4423 12.1958 29.5046 3.02008 22.8948 0.871212C16.285 -1.27766 8.51465 4.39826 5.53162 13.5649C2.5486 22.7226 5.48629 31.8983 12.0961 34.0472ZM14.118 33.349C19.7123 34.5459 25.76 28.4166 27.6278 19.6579C29.4956 10.9083 26.4763 2.83874 20.882 1.65097C15.2877 0.454132 9.24001 6.58339 7.37222 15.3421C5.50442 24.0917 8.52372 32.1613 14.118 33.349Z" fill="black"/>
<path fill-rule="evenodd" clip-rule="evenodd" d="M15.6503 34.7907C20.075 35.2622 24.4816 27.8907 25.5061 18.316C26.5307 8.74132 23.7743 0.60827 19.3497 0.136789C14.925 -0.334693 10.5184 7.03674 9.49388 16.6114C8.46932 26.1861 11.2257 34.3192 15.6503 34.7907ZM17.7176 31.8802C20.9182 31.8258 23.4117 25.352 23.2847 17.4093C23.1578 9.46668 20.4649 3.07448 17.2643 3.11982C14.0636 3.17422 11.5702 9.64802 11.6972 17.5907C11.8241 25.5333 14.517 31.9255 17.7176 31.8802Z" fill="black"/>
</svg>
