<svg width="641" height="191" viewBox="0 0 641 191" fill="none" xmlns="http://www.w3.org/2000/svg">
<g filter="url(#filter0_d_14443_1620)">
<path d="M4 142.8V2.8H61.6C70.4 2.8 78.1333 4.6 84.8 8.2C91.6 11.6667 96.8667 16.6 100.6 23C104.467 29.4 106.4 37 106.4 45.8V48.6C106.4 57.2667 104.4 64.8667 100.4 71.4C96.5333 77.8 91.2 82.8 84.4 86.4C77.7333 89.8667 70.1333 91.6 61.6 91.6H30.4V142.8H4ZM30.4 67.6H59C65.2667 67.6 70.3333 65.8667 74.2 62.4C78.0667 58.9333 80 54.2 80 48.2V46.2C80 40.2 78.0667 35.4667 74.2 32C70.3333 28.5333 65.2667 26.8 59 26.8H30.4V67.6Z" fill="white"/>
<path d="M160.35 145.6C153.283 145.6 146.95 144.4 141.35 142C135.75 139.467 131.283 135.867 127.95 131.2C124.75 126.4 123.15 120.6 123.15 113.8C123.15 107 124.75 101.333 127.95 96.8C131.283 92.1333 135.817 88.6667 141.55 86.4C147.417 84 154.083 82.8 161.55 82.8H188.75V77.2C188.75 72.5333 187.283 68.7333 184.35 65.8C181.417 62.7333 176.75 61.2 170.35 61.2C164.083 61.2 159.417 62.6667 156.35 65.6C153.283 68.4 151.283 72.0667 150.35 76.6L127.15 68.8C128.75 63.7333 131.283 59.1333 134.75 55C138.35 50.7333 143.083 47.3333 148.95 44.8C154.95 42.1333 162.217 40.8 170.75 40.8C183.817 40.8 194.15 44.0667 201.75 50.6C209.35 57.1333 213.15 66.6 213.15 79V116C213.15 120 215.017 122 218.75 122H226.75V142.8H209.95C205.017 142.8 200.95 141.6 197.75 139.2C194.55 136.8 192.95 133.6 192.95 129.6V129.4H189.15C188.617 131 187.417 133.133 185.55 135.8C183.683 138.333 180.75 140.6 176.75 142.6C172.75 144.6 167.283 145.6 160.35 145.6ZM164.75 125.2C171.817 125.2 177.55 123.267 181.95 119.4C186.483 115.4 188.75 110.133 188.75 103.6V101.6H163.35C158.683 101.6 155.017 102.6 152.35 104.6C149.683 106.6 148.35 109.4 148.35 113C148.35 116.6 149.75 119.533 152.55 121.8C155.35 124.067 159.417 125.2 164.75 125.2Z" fill="white"/>
<path d="M259.241 182.8V160.8H313.241C316.974 160.8 318.841 158.8 318.841 154.8V129.8H315.241C314.174 132.067 312.507 134.333 310.241 136.6C307.974 138.867 304.907 140.733 301.041 142.2C297.174 143.667 292.241 144.4 286.241 144.4C278.507 144.4 271.707 142.667 265.841 139.2C260.107 135.6 255.641 130.667 252.441 124.4C249.241 118.133 247.641 110.933 247.641 102.8V43.6H272.841V100.8C272.841 108.267 274.641 113.867 278.241 117.6C281.974 121.333 287.241 123.2 294.041 123.2C301.774 123.2 307.774 120.667 312.041 115.6C316.307 110.4 318.441 103.2 318.441 94V43.6H343.641V160.4C343.641 167.2 341.641 172.6 337.641 176.6C333.641 180.733 328.307 182.8 321.641 182.8H259.241Z" fill="white"/>
<path d="M376.883 142.8V2.8H403.283V58.4H406.883L452.283 2.8H486.083L427.683 71.8L488.083 142.8H453.283L406.883 86H403.283V142.8H376.883Z" fill="white"/>
<path d="M508.878 142.8V43.6H534.078V142.8H508.878ZM521.478 32C516.945 32 513.078 30.5333 509.878 27.6C506.811 24.6667 505.278 20.8 505.278 16C505.278 11.2 506.811 7.33334 509.878 4.4C513.078 1.46667 516.945 0 521.478 0C526.145 0 530.011 1.46667 533.078 4.4C536.145 7.33334 537.678 11.2 537.678 16C537.678 20.8 536.145 24.6667 533.078 27.6C530.011 30.5333 526.145 32 521.478 32Z" fill="white"/>
<path d="M606.003 142.8C599.47 142.8 594.136 140.8 590.003 136.8C586.003 132.667 584.003 127.2 584.003 120.4V64.4H559.203V43.6H584.003V12.8H609.203V43.6H636.403V64.4H609.203V116C609.203 120 611.07 122 614.803 122H634.003V142.8H606.003Z" fill="white"/>
</g>
<defs>
<filter id="filter0_d_14443_1620" x="0" y="0" width="640.403" height="190.8" filterUnits="userSpaceOnUse" color-interpolation-filters="sRGB">
<feFlood flood-opacity="0" result="BackgroundImageFix"/>
<feColorMatrix in="SourceAlpha" type="matrix" values="0 0 0 0 0 0 0 0 0 0 0 0 0 0 0 0 0 0 127 0" result="hardAlpha"/>
<feOffset dy="4"/>
<feGaussianBlur stdDeviation="2"/>
<feComposite in2="hardAlpha" operator="out"/>
<feColorMatrix type="matrix" values="0 0 0 0 0 0 0 0 0 0 0 0 0 0 0 0 0 0 0.25 0"/>
<feBlend mode="normal" in2="BackgroundImageFix" result="effect1_dropShadow_14443_1620"/>
<feBlend mode="normal" in="SourceGraphic" in2="effect1_dropShadow_14443_1620" result="shape"/>
</filter>
</defs>
</svg>
