<svg width="561" height="622" viewBox="0 0 561 622" fill="none" xmlns="http://www.w3.org/2000/svg">
<path d="M278.318 0C314.762 0.783 338.498 18.862 368.537 36.652L426.091 69.974L483.07 102.679C508.533 117.3 532.366 128.344 547.546 154.786C561.766 179.568 559.876 203.977 559.856 231.096L559.836 288.771L559.927 369.151C559.987 389.116 561.236 422.452 556.436 440.802C551.986 457.859 542.586 473.22 529.436 484.953C518.919 494.452 502.676 503.282 490.319 510.408L297.947 621.486C297.386 602.09 297.789 581.168 297.596 561.689C297.463 548.291 297.158 520.618 299.805 508.335C306.117 501.632 328.212 490.111 337.174 485.056L407.063 444.976C422.688 436.031 448.211 423.939 459.094 410.445C462.74 405.923 461.525 364.222 461.52 356.045L461.465 277.017C461.457 257.508 462.663 232.112 460.676 212.805C459.901 205.28 453.119 199.371 446.856 195.475C438.884 190.291 426.816 183.828 418.264 178.914L318.793 121.454C309.254 115.943 299.79 110.291 289.989 105.257C283.552 101.951 277.114 101.837 270.635 105.156C259.145 111.043 248.028 117.657 236.851 124.117L178.412 157.948L137.323 181.498C92.8364 206.872 98.0514 200.898 98.5464 251.751C98.6994 271.127 98.7504 290.504 98.7004 309.881L98.6714 527.039C75.7934 515.227 52.1735 501.783 32.1445 485.61C-4.67653 455.881 0.156453 416.492 0.263453 374.454L0.36645 295.258L0.236445 232.407C0.196445 217.769 -0.436562 196.005 2.31744 182.139C5.55244 166.437 12.7935 151.838 23.3375 139.76C38.4115 122.529 65.4175 109.306 85.5215 97.819L148.705 61.365L202.989 29.896C229.172 14.67 247.026 2.072 278.318 0Z" fill="white"/>
<path d="M134.721 245.845C157.12 257.213 183.432 274.17 205.744 286.487C217.806 293.146 249.954 311.324 259.762 319.257C263.04 331.97 261.898 352.78 261.875 366.521L261.904 620.833C258.748 619.611 255.261 617.669 252.283 615.981L189.788 579.728C183.522 576.122 138.162 551.516 136.553 545.855C133.667 535.701 134.524 509.967 134.602 498.219L134.668 449.47L134.721 245.845Z" fill="white"/>
<path d="M424.164 246.357L425.16 247.587C426.527 260.727 425.893 291.558 425.957 305.883C426.021 323.124 425.943 340.365 425.724 357.604C425.61 367.571 425.815 381.433 424.348 391.031C414.531 400.76 384.007 416.704 370.364 424.494L299.297 465.353L298.761 464.891C296.707 460.495 298.249 419.496 298.232 411.445L298.056 356.558C298.044 348.167 297.907 339.624 298.202 331.356C298.479 323.556 298.961 320.396 305.412 315.714C319.035 305.829 334.79 297.712 349.3 289.411L424.164 246.357Z" fill="white"/>
<path d="M278.182 142.88C286.738 142.929 319.787 163.618 329.264 169.117L407.541 214.501C378.363 230.055 350.012 248.263 321.153 264.475C308.762 271.436 294.968 280.19 282.169 285.988C269.787 283.988 229.679 258.809 216.991 251.469L152.684 214.559C169.629 203.559 195.537 189.898 213.714 179.104C230.709 169.012 261.327 150.325 278.182 142.88Z" fill="white"/>
</svg>
